<?xml version="1.0" encoding="UTF-8"?>
<!-- Generator: Adobe Illustrator 23.0.1, SVG Export Plug-In . SVG Version: 6.00 Build 0)  -->
<svg preserveAspectRatio="xMidYMid slice" width="1200px" height="1200px" xmlns="http://www.w3.org/2000/svg" xmlns:xlink="http://www.w3.org/1999/xlink" version="1.1" id="Layer_1" x="0px" y="0px" viewBox="0 0 500 500" style="enable-background:new 0 0 500 500;" xml:space="preserve">
<style type="text/css">
	.st0{fill:#3C3C3C;}
	.st1{fill:#D1D3D4;}
	.st2{fill:#F15A38;}
	.st3{fill:#FFFFFF;}
	.st4{fill:#7C7C7C;}
	.st5{fill:#EDEDED;}
	.st6{fill:#77787B;}
</style>
<circle class="st0" cx="250" cy="250" r="250"></circle>
<path class="st1" d="M212,320.6v73.5c11.8,3.1,24.1,4.7,36.8,4.8l4.2-13.8l3.8,13.6c12.9-0.6,25.4-2.8,37.3-6.4v-71.7H212z"></path>
<g>
	<path class="st2" d="M247.4,167.3c0,0-35.3,4.1-51.6,25.4c-14.8,19-23.7,51.8-23.7,51.8l35.4,11.2l-4,82.5c0,0,18.8,7.1,50.4,7.1   c23.8,0,46.1-6.8,46.1-6.8l-9.5-82.7l36.9-13.9c0,0-1.7-8.6-12.2-30.6C296.6,169.8,270.4,168.5,247.4,167.3z"></path>
	<path class="st0" d="M255.4,182.6c-0.7-4,0.7-8.7,0.7-8.7l-0.1-4.1l-10-0.1l0.1,4.1c0,0,1.6,4.7,1.2,8.7   c-0.6,5.4,0.3,115.2,0.3,115.2l7.2,5.8l6.9-5.7C256.5,192.3,256.4,188.1,255.4,182.6z"></path>
	<path class="st3" d="M222.7,140.5c2.5,18.8,15.6,32.6,29.2,30.8c13.6-1.8,22.6-18.5,20.1-37.4c-2.5-18.8-15.6-32.6-29.2-30.8   C229.1,104.9,220.2,121.6,222.7,140.5z"></path>
	<path class="st4" d="M239.1,103.6c2.6-0.6,5.5-1.3,7.6-1.2c2.1-0.1,5,0.5,10.3,0.5c11.5,0,9.8,15.3,9.8,15.3   c-4.8,3.1-15.9,8.5-32.5,6.3c0,0,0.2,20-8.6,27.2c-1.4-3.4-2.5-7.1-3-11.1C220.2,121.6,224.8,106.9,239.1,103.6z"></path>
</g>
<g>
	<g>
		<g>
			<path class="st3" d="M364.3,154.1c0,0,16.8,1.9,20.2,16.4c3.3,14.5-2.2,24.5-4.5,29.2c-5.9,12.5-1.1,19.2-0.3,27.3     c0.7,7.2,1.7,11.1,2.8,17.9c1,6.8-2.2,5.6-2.5,6.1c-0.4,0.4-72,2.9-72,2.9s4.4-16,9.6-21.9c3.8-4.3,8.7-5.2,7.2-19.7     c-1.5-14.5-2.7-21.3,0.7-31.2c4-11.4,6.5-18.6,18.7-24.7C351.5,152.7,359.1,152.8,364.3,154.1z"></path>
		</g>
	</g>
	<path class="st4" d="M354.5,336.4c4.3,0.8,6.1,4.2,6.1,4.2c7.5-4.2,25.1-14.1,28.1-17c3.7-3.7-7.5-23.6-7.5-23.6l18.1-7.8   c0,0,10.9,32.6,3.8,38.4c-6,4.9-32.6,15.5-40.6,18.6l0,0.1c0,0-1.7,2.5-2.5,2.5c-0.8,0-1.5-0.7-3.5-4.2c-2.1-3.5-7.9-3.3-9.7-3.8   c-1.8-0.5-2.9-2.7-2-4.9C345.7,336.7,350.2,335.6,354.5,336.4z"></path>
	<path class="st4" d="M276.9,272.1l12.8,9.3c-1.5,1.8-2.6,3.8-2.9,6c-1.4,10.7,9.2,41.5,9.2,41.5s3.9-5.3,7.1-0.8   c3.2,4.5,1.4,5.3-0.6,7.5c-2,2.1-7.4-5.5-9.2,0.2c-1,3.3-1.8,0.1-2.4-3c-6.4-8.5-23.5-32.7-21.4-46.2   C270.3,282,273.1,277,276.9,272.1z"></path>
	<path class="st1" d="M279.4,256.2c2.9-4,6.1-7.8,9.6-11.2l0,0c0,0,32.7-36.7,57.5-33.5c18.5,2.4,28.8,17.3,38.2,31.8   c9.4,14.4,23.1,47.4,23.1,47.4l-28.1,12.1l-5.9-8.8l-15.3,38.6c-20.3-3.6-57.3-11-57.3-11l6.8-24.5c1.1-4.1,0.3-8.4-2.2-11.8   l-5.9-7.7l-5.5,9.2l-24.3-17.7L279.4,256.2z"></path>
	<path class="st6" d="M360.5,351.7c-0.6-15.2-2-19.2-2-19.2c-20.3-3.6-57.2-11-57.3-11c-11.2,13.4-27.1,45.7-22.8,74.7   c0,0,23.1-4,45.2-15.5C348.7,367.7,360.5,351.7,360.5,351.7z"></path>
	<path class="st4" d="M330.3,184.1c2-15.2,12.5-26.3,23.5-24.9c11,1.4,18.3,14.9,16.3,30.1c-0.1,0.7-0.3,1.3-0.4,1.9   c-0.1,0.9-0.1,1.8-0.2,2.7c-0.7,5.2-1.6,6.6-3.5,10.6c-3.6,7.7-9.3,15.7-14.6,15c-3.1-0.4-5.7-2.7-7.7-6.1   C334.4,210.2,328.5,197.9,330.3,184.1z"></path>
	<g>
		<g>
			<path class="st3" d="M348.3,166.1c2-0.3,6.7,13.2,9.7,16.9c3,3.6,8.4,12.3,7.7,21c-0.6,8.6,10.6-17.5,9.5-28     c-1-10.5-2.2-25.7-26.4-17.3c-24.2,8.4-21.5,30.3-21.5,30.3S338.2,167.6,348.3,166.1z"></path>
		</g>
	</g>
</g>
<g>
	<path class="st6" d="M160.2,218.4c0,0-36.7,7.8-44.4,47.2l-3,37.3l22.1-2.9l3.3,47c0,0,6.7,7.5,33.9,29.2   c19.1,15.2,51.6,20.4,51.6,20.4L207.3,291l21.3-2.5c0,0,0.2-17.4-11.4-35.5C194.7,217.6,180.5,216.9,160.2,218.4z"></path>
	<path class="st1" d="M228.4,287l-21.8,2.6l3.8,18.8c0,0-4.1-9.7-14.7-14.2c-7-2.9-29.4,7.6-45.5,16.1c-2.4-2.3-7.6-5.9-14.2-3   l0.3-9l-23.3,2.9c-4.1,41.8,14.1,45.4,23.5,43.9c6.9-1,25.4-17.9,36.4-27.9c20.1,16.7,54.6,12.8,57.9,4   C234,312.4,228.4,287,228.4,287z"></path>
	<path class="st1" d="M135,197.4c6.3,16.6,21.1,26.3,33.1,21.8c12-4.5,16.6-21.7,10.3-38.2c-6.3-16.6-21.1-26.3-33.1-21.8   S128.7,180.8,135,197.4z"></path>
	<path class="st6" d="M142,160.4c2.2-1.1,4.3-1.7,6.3-2.1c2-0.5,5-1.3,9.9-2.4c10.4-2.5,12.1,11.9,12.1,11.9   c-7.5-1-23.4,4.1-28.2,12.6c0,0-4,6.9-2,26.5c0,0-4.8-3.2-7.7-9C121.1,175.3,129.8,166.4,142,160.4z"></path>
	<path class="st6" d="M168.5,147.8c0,0-1.9,13.3,1.9,20l-16-2.1l-19.5,7.7l-7.7,5.5c0,0-0.7-10.7,3.9-18.5c0,0,1.6,2,2.1,3.5   c0,0,0.8-5.1,2.4-10.1l2.9,6.7c0,0-0.2-5.7,2.7-8c0,0,0.9,3.9,2.3,6.9c0,0,0.1-5.9,2.4-8c0,0,1.3,5.2,3,6.8c0,0,0.6-6.7,6.8-14.4   c0,0-1.4,9.1-0.2,13.7c0,0,3.1-9.3,5.7-11.6c0,0-0.2,7.4,0.3,9.2C161.6,155.2,162.9,150.9,168.5,147.8z"></path>
</g>
</svg>
